<svg width="37" height="27" viewBox="0 0 37 27" fill="none" xmlns="http://www.w3.org/2000/svg">
<path d="M2.72033 10.8248L27.881 10.8248L21.8267 4.77049C21.3104 4.25417 21.0667 3.63826 21.0667 2.96206C21.0667 1.67258 22.1321 0.341156 23.6876 0.341156C24.3834 0.341156 24.9902 0.594073 25.496 1.10122L35.9246 11.5298C36.3544 11.9596 36.7921 12.4904 36.7921 13.4457C36.7921 14.401 36.4265 14.861 35.9456 15.3419L25.496 25.7902C24.9902 26.2973 24.3834 26.5502 23.6876 26.5502C22.1308 26.5502 21.0667 25.2188 21.0667 23.9293C21.0667 23.2531 21.3104 22.6372 21.8267 22.1209L27.881 16.0666H2.72033C1.27359 16.0666 0.0994186 14.8924 0.0994186 13.4457C0.0994186 11.999 1.27359 10.8248 2.72033 10.8248Z" fill="#D70081"/>
</svg>
