<svg width="88" height="87" viewBox="0 0 88 87" fill="none" xmlns="http://www.w3.org/2000/svg">
<path d="M0 43.2843C0 19.3895 19.3705 0.019043 43.2652 0.019043C67.16 0.019043 86.5305 19.3895 86.5305 43.2843V86.5496H43.2652C19.3705 86.5496 0 67.1791 0 43.2843Z" fill="url(#paint0_linear_140_581)"/>
<path d="M37.7798 60.3228C37.7798 61.9455 39.0954 63.261 40.718 63.261H88V47.985H37.7798V60.3228Z" fill="white"/>
<path d="M40.7464 63.2613C38.1349 63.2613 35.5488 62.7452 33.1361 61.7424C30.7232 60.7396 28.5309 59.2698 26.6842 57.4168C24.8376 55.5639 23.3727 53.3641 22.3733 50.9431C21.3738 48.5222 20.8595 45.9275 20.8595 43.307C20.8595 40.6866 21.3738 38.0917 22.3733 35.6707C23.3727 33.2498 24.8376 31.0499 26.6842 29.1971C28.5309 27.3441 30.7232 25.8743 33.1361 24.8715C35.5488 23.8686 38.1349 23.3525 40.7464 23.3525V38.6347C40.135 38.6347 39.5294 38.7556 38.9645 38.9903C38.3995 39.2251 37.8862 39.5693 37.4538 40.0031C37.0215 40.437 36.6784 40.952 36.4444 41.519C36.2104 42.0857 36.0899 42.6934 36.0899 43.307C36.0899 43.9205 36.2104 44.5281 36.4444 45.0949C36.6784 45.6618 37.0215 46.1769 37.4538 46.6107C37.8862 47.0446 38.3995 47.3888 38.9645 47.6236C39.5294 47.8583 40.135 47.9792 40.7464 47.9792V63.2613Z" fill="white"/>
<defs>
<linearGradient id="paint0_linear_140_581" x1="86.5305" y1="43.2843" x2="0" y2="43.2843" gradientUnits="userSpaceOnUse">
<stop offset="0.204718" stop-color="#222549"/>
<stop offset="1" stop-color="#DA3654"/>
</linearGradient>
</defs>
</svg>
