<svg width="19" height="30" viewBox="0 0 19 30" fill="none" xmlns="http://www.w3.org/2000/svg"><path d="M18.3333.829719C18.3333.614284 18.2455.407672 18.0893.255336 17.933.103 17.721.0174185 17.5.0174185H13.3333C11.2352-.0844589 9.181.62728 7.61954 1.99713 6.05808 3.36697 5.11631 5.28356 5 7.32813V11.7146H.833334C.61232 11.7146.400358 11.8001.244078 11.9525.0877976 12.1048.0 12.3114.0 12.5269V16.7508C0 16.9663.0877976 17.1729.244078 17.3252.400358 17.4775.61232 17.5631.833334 17.5631H5V28.448C5 28.6634 5.0878 28.87 5.24408 29.0223 5.40036 29.1747 5.61232 29.2603 5.83334 29.2603H10.8333C11.0544 29.2603 11.2663 29.1747 11.4226 29.0223 11.5789 28.87 11.6667 28.6634 11.6667 28.448V17.5631h4.3666C16.2187 17.5657 16.3996 17.508 16.5475 17.3992 16.6954 17.2903 16.8018 17.1365 16.85 16.962L18.05 12.7381C18.0832 12.618 18.0876 12.4922 18.063 12.3702 18.0385 12.2483 17.9855 12.1334 17.9082 12.0346 17.8309 11.9357 17.7314 11.8554 17.6173 11.7999 17.5032 11.7445 17.3775 11.7152 17.25 11.7146H11.6667V7.32813C11.7081 6.926 11.9019 6.55337 12.21 6.28301 12.5182 6.01265 12.9187 5.86396 13.3333 5.86599H17.5C17.721 5.86599 17.933 5.7804 18.0893 5.62807 18.2455 5.47573 18.3333 5.26912 18.3333 5.05368V.829719z" fill="#000"/></svg>