<svg width="219" height="41" viewBox="0 0 219 41" fill="none" xmlns="http://www.w3.org/2000/svg">
<path d="M52.2029 33.408C49.9816 33.408 48.2136 32.7847 46.8989 31.538C45.6069 30.2913 44.9609 28.5347 44.9609 26.268H48.5649C48.5649 27.4013 48.8369 28.342 49.3809 29.09C49.9476 29.838 50.8656 30.212 52.1349 30.212C53.3816 30.212 54.2656 29.8607 54.7869 29.158C55.3083 28.4327 55.5689 27.5147 55.5689 26.404V9.19999H59.1729V26.404C59.1729 28.648 58.5496 30.382 57.3029 31.606C56.0563 32.8073 54.3563 33.408 52.2029 33.408Z" fill="#222549"/>
<path d="M69.5642 33.408C68.1362 33.408 66.9575 33.17 66.0282 32.694C65.0989 32.218 64.4075 31.5947 63.9542 30.824C63.5009 30.0307 63.2742 29.1693 63.2742 28.24C63.2742 26.608 63.9089 25.316 65.1782 24.364C66.4475 23.412 68.2609 22.936 70.6182 22.936H75.0382V22.63C75.0382 21.3153 74.6755 20.3293 73.9502 19.672C73.2475 19.0147 72.3295 18.686 71.1962 18.686C70.1989 18.686 69.3262 18.9353 68.5782 19.434C67.8529 19.91 67.4109 20.624 67.2522 21.576H63.6482C63.7615 20.352 64.1695 19.3093 64.8722 18.448C65.5975 17.564 66.5042 16.8953 67.5922 16.442C68.7029 15.966 69.9155 15.728 71.2302 15.728C73.5875 15.728 75.4122 16.3513 76.7042 17.598C77.9962 18.822 78.6422 20.4993 78.6422 22.63V33H75.5142L75.2082 30.11C74.7322 31.0393 74.0409 31.8213 73.1342 32.456C72.2275 33.0907 71.0375 33.408 69.5642 33.408ZM70.2782 30.484C71.2529 30.484 72.0689 30.2573 72.7262 29.804C73.4062 29.328 73.9275 28.7047 74.2902 27.934C74.6755 27.1633 74.9135 26.3133 75.0042 25.384H70.9922C69.5642 25.384 68.5442 25.6333 67.9322 26.132C67.3429 26.6307 67.0482 27.254 67.0482 28.002C67.0482 28.7727 67.3315 29.3847 67.8982 29.838C68.4875 30.2687 69.2809 30.484 70.2782 30.484Z" fill="#222549"/>
<path d="M82.8444 33V16.136H86.0404L86.3464 18.516C86.8904 17.6547 87.6044 16.9747 88.4884 16.476C89.395 15.9773 90.4377 15.728 91.6164 15.728C94.291 15.728 96.1497 16.782 97.1924 18.89C97.8044 17.9153 98.6204 17.1447 99.6404 16.578C100.683 16.0113 101.805 15.728 103.006 15.728C105.114 15.728 106.769 16.3627 107.97 17.632C109.172 18.9013 109.772 20.794 109.772 23.31V33H106.168V23.684C106.168 20.42 104.922 18.788 102.428 18.788C101.159 18.788 100.116 19.264 99.3004 20.216C98.507 21.168 98.1104 22.528 98.1104 24.296V33H94.5064V23.684C94.5064 20.42 93.2484 18.788 90.7324 18.788C89.4857 18.788 88.4544 19.264 87.6384 20.216C86.845 21.168 86.4484 22.528 86.4484 24.296V33H82.8444Z" fill="#222549"/>
<path d="M120.721 33.408C118.59 33.408 116.834 32.8867 115.451 31.844C114.068 30.8013 113.275 29.4187 113.071 27.696H116.709C116.89 28.4667 117.321 29.1353 118.001 29.702C118.681 30.246 119.576 30.518 120.687 30.518C121.775 30.518 122.568 30.2913 123.067 29.838C123.566 29.3847 123.815 28.8633 123.815 28.274C123.815 27.4127 123.464 26.8347 122.761 26.54C122.081 26.2227 121.129 25.9393 119.905 25.69C118.953 25.486 118.001 25.214 117.049 24.874C116.12 24.534 115.338 24.058 114.703 23.446C114.091 22.8113 113.785 21.9613 113.785 20.896C113.785 19.4227 114.352 18.1987 115.485 17.224C116.618 16.2267 118.205 15.728 120.245 15.728C122.126 15.728 123.645 16.1813 124.801 17.088C125.98 17.9947 126.671 19.2753 126.875 20.93H123.407C123.294 20.2047 122.954 19.638 122.387 19.23C121.843 18.822 121.106 18.618 120.177 18.618C119.27 18.618 118.568 18.8107 118.069 19.196C117.57 19.5587 117.321 20.0347 117.321 20.624C117.321 21.2133 117.661 21.678 118.341 22.018C119.044 22.358 119.962 22.664 121.095 22.936C122.228 23.1853 123.271 23.48 124.223 23.82C125.198 24.1373 125.98 24.6133 126.569 25.248C127.158 25.8827 127.453 26.812 127.453 28.036C127.476 29.5773 126.875 30.858 125.651 31.878C124.45 32.898 122.806 33.408 120.721 33.408Z" fill="#222549"/>
<path d="M137.828 33C136.174 33 134.859 32.6033 133.884 31.81C132.91 30.994 132.422 29.5547 132.422 27.492V19.162H129.532V16.136H132.422L132.864 11.852H136.026V16.136H140.786V19.162H136.026V27.492C136.026 28.4213 136.219 29.0673 136.604 29.43C137.012 29.77 137.704 29.94 138.678 29.94H140.616V33H137.828Z" fill="#222549"/>
<path d="M150.215 33.408C148.787 33.408 147.608 33.17 146.679 32.694C145.749 32.218 145.058 31.5947 144.605 30.824C144.151 30.0307 143.925 29.1693 143.925 28.24C143.925 26.608 144.559 25.316 145.829 24.364C147.098 23.412 148.911 22.936 151.269 22.936H155.689V22.63C155.689 21.3153 155.326 20.3293 154.601 19.672C153.898 19.0147 152.98 18.686 151.847 18.686C150.849 18.686 149.977 18.9353 149.229 19.434C148.503 19.91 148.061 20.624 147.903 21.576H144.299C144.412 20.352 144.82 19.3093 145.523 18.448C146.248 17.564 147.155 16.8953 148.243 16.442C149.353 15.966 150.566 15.728 151.881 15.728C154.238 15.728 156.063 16.3513 157.355 17.598C158.647 18.822 159.293 20.4993 159.293 22.63V33H156.165L155.859 30.11C155.383 31.0393 154.691 31.8213 153.785 32.456C152.878 33.0907 151.688 33.408 150.215 33.408ZM150.929 30.484C151.903 30.484 152.719 30.2573 153.377 29.804C154.057 29.328 154.578 28.7047 154.941 27.934C155.326 27.1633 155.564 26.3133 155.655 25.384H151.643C150.215 25.384 149.195 25.6333 148.583 26.132C147.993 26.6307 147.699 27.254 147.699 28.002C147.699 28.7727 147.982 29.3847 148.549 29.838C149.138 30.2687 149.931 30.484 150.929 30.484Z" fill="#222549"/>
<path d="M171.485 33.408C169.83 33.408 168.345 33.034 167.031 32.286C165.739 31.538 164.719 30.5067 163.971 29.192C163.245 27.8547 162.883 26.3133 162.883 24.568C162.883 22.8227 163.245 21.2927 163.971 19.978C164.719 18.6407 165.739 17.598 167.031 16.85C168.345 16.102 169.83 15.728 171.485 15.728C173.57 15.728 175.315 16.272 176.721 17.36C178.149 18.448 179.067 19.9213 179.475 21.78H175.701C175.474 20.8507 174.975 20.1253 174.205 19.604C173.434 19.0827 172.527 18.822 171.485 18.822C170.601 18.822 169.785 19.0487 169.037 19.502C168.289 19.9327 167.688 20.5787 167.235 21.44C166.781 22.2787 166.555 23.3213 166.555 24.568C166.555 25.8147 166.781 26.8687 167.235 27.73C167.688 28.5687 168.289 29.2147 169.037 29.668C169.785 30.1213 170.601 30.348 171.485 30.348C172.527 30.348 173.434 30.0873 174.205 29.566C174.975 29.0447 175.474 28.308 175.701 27.356H179.475C179.089 29.1693 178.183 30.6313 176.755 31.742C175.327 32.8527 173.57 33.408 171.485 33.408Z" fill="#222549"/>
<path d="M183.383 33V8.51999H186.987V23.106L193.447 16.136H197.765L190.591 23.786L198.819 33H194.263L186.987 24.364V33H183.383Z" fill="#222549"/>
<path d="M203.584 40.48L207.63 31.606H206.644L199.98 16.136H203.89L209.058 28.614L214.464 16.136H218.272L207.392 40.48H203.584Z" fill="#222549"/>
<path fill-rule="evenodd" clip-rule="evenodd" d="M17 0C7.61114 0 0 7.61116 0 17C0 26.3889 7.61114 34 17 34H34V24.8494H16.0102V24.8495C14.9841 24.8495 13.968 24.6467 13.0199 24.2527C12.0719 23.8586 11.2104 23.2811 10.4848 22.553C9.75922 21.825 9.18365 20.9606 8.79095 20.0094C8.39824 19.0581 8.19615 18.0386 8.19615 17.0089C8.19615 15.9793 8.39824 14.9597 8.79095 14.0084C9.18365 13.0572 9.75922 12.1928 10.4848 11.4648C11.2104 10.7367 12.0719 10.1592 13.0199 9.76514C13.968 9.37111 14.9841 9.16832 16.0102 9.16832V15.173C15.77 15.173 15.532 15.2206 15.3101 15.3128C15.088 15.405 14.8864 15.5403 14.7165 15.7108C14.5466 15.8812 14.4118 16.0836 14.3198 16.3064C14.2279 16.5291 14.1806 16.7678 14.1806 17.0089C14.1806 17.25 14.2279 17.4887 14.3198 17.7114C14.4118 17.9342 14.5466 18.1366 14.7165 18.3071C14.8864 18.4775 15.088 18.6128 15.3101 18.705C15.532 18.7973 15.77 18.8448 16.0102 18.8448V18.847H34V17C34 7.61116 26.3888 0 17 0Z" fill="url(#paint0_linear_3123_1385)"/>
<defs>
<linearGradient id="paint0_linear_3123_1385" x1="34" y1="17" x2="0" y2="17" gradientUnits="userSpaceOnUse">
<stop offset="0.204718" stop-color="#222549"/>
<stop offset="1" stop-color="#DA3654"/>
</linearGradient>
</defs>
</svg>
