<svg width="29" height="16" viewBox="0 0 29 16" fill="none" xmlns="http://www.w3.org/2000/svg">
<path d="M27.156 7.01904C27.7083 7.01904 28.156 7.46676 28.156 8.01904C28.156 8.57133 27.7083 9.01904 27.156 9.01904V7.01904ZM0.448899 8.72615C0.0583748 8.33563 0.0583748 7.70246 0.448899 7.31194L6.81286 0.947975C7.20338 0.557451 7.83655 0.557451 8.22707 0.947975C8.6176 1.3385 8.6176 1.97166 8.22707 2.36219L2.57022 8.01904L8.22707 13.6759C8.6176 14.0664 8.6176 14.6996 8.22707 15.0901C7.83655 15.4806 7.20338 15.4806 6.81286 15.0901L0.448899 8.72615ZM27.156 9.01904H1.15601V7.01904H27.156V9.01904Z" fill="#F4F4F4"/>
</svg>
