<svg width="23" height="16" viewBox="0 0 23 16" fill="none" xmlns="http://www.w3.org/2000/svg">
<path d="M21.2852 9.01904C21.8374 9.01904 22.2852 8.57133 22.2852 8.01904C22.2852 7.46676 21.8374 7.01904 21.2852 7.01904L21.2852 9.01904ZM0.449017 7.31193C0.0584931 7.70246 0.058493 8.33562 0.449017 8.72615L6.81298 15.0901C7.2035 15.4806 7.83667 15.4806 8.22719 15.0901C8.61772 14.6996 8.61772 14.0664 8.22719 13.6759L2.57034 8.01904L8.22719 2.36219C8.61772 1.97166 8.61772 1.3385 8.22719 0.947974C7.83667 0.55745 7.2035 0.55745 6.81298 0.947974L0.449017 7.31193ZM21.2852 7.01904L1.15612 7.01904L1.15612 9.01904L21.2852 9.01904L21.2852 7.01904Z" fill="#232536"/>
</svg>
