<svg width="31" height="31" viewBox="0 0 31 31" fill="none" xmlns="http://www.w3.org/2000/svg"><path d="M3.64667 7.14014C5.66067 7.14014 7.29333 5.54876 7.29333 3.58569 7.29333 1.62263 5.66067.03125 3.64667.03125 1.63267.03125.0 1.62263.0 3.58569.0 5.54876 1.63267 7.14014 3.64667 7.14014z" fill="#000"/><path d="M10.7367 10.5499V30.2728H17.0183V20.5194C17.0183 17.9458 17.515 15.4534 20.7883 15.4534 24.0167 15.4534 24.0567 18.3959 24.0567 20.6819V30.2744h6.285V19.4584C30.3417 14.1455 29.1683 10.0625 22.7983 10.0625 19.74 10.0625 17.69 11.6986 16.8517 13.247H16.7667V10.5499H10.7367zM.5 10.5499H6.79167V30.2728H.5V10.5499z" fill="#000"/></svg>