<svg width="23" height="16" viewBox="0 0 23 16" fill="none" xmlns="http://www.w3.org/2000/svg">
<path d="M1.87085 9.01904C1.31856 9.01904 0.87085 8.57133 0.87085 8.01904C0.87085 7.46676 1.31856 7.01904 1.87085 7.01904L1.87085 9.01904ZM22.707 7.31193C23.0975 7.70246 23.0975 8.33562 22.707 8.72615L16.343 15.0901C15.9525 15.4806 15.3193 15.4806 14.9288 15.0901C14.5383 14.6996 14.5383 14.0664 14.9288 13.6759L20.5857 8.01904L14.9288 2.36219C14.5383 1.97166 14.5383 1.3385 14.9288 0.947974C15.3193 0.55745 15.9525 0.55745 16.343 0.947974L22.707 7.31193ZM1.87085 7.01904L21.9999 7.01904L21.9999 9.01904L1.87085 9.01904L1.87085 7.01904Z" fill="#232536"/>
</svg>
