<svg width="28" height="16" viewBox="0 0 28 16" fill="none" xmlns="http://www.w3.org/2000/svg">
<path d="M1 7.01904C0.447715 7.01904 0 7.46676 0 8.01904C0 8.57133 0.447715 9.01904 1 9.01904V7.01904ZM27.7071 8.72615C28.0976 8.33563 28.0976 7.70246 27.7071 7.31194L21.3431 0.947975C20.9526 0.557451 20.3195 0.557451 19.9289 0.947975C19.5384 1.3385 19.5384 1.97166 19.9289 2.36219L25.5858 8.01904L19.9289 13.6759C19.5384 14.0664 19.5384 14.6996 19.9289 15.0901C20.3195 15.4806 20.9526 15.4806 21.3431 15.0901L27.7071 8.72615ZM1 9.01904H27V7.01904H1V9.01904Z" fill="#F4F4F4"/>
</svg>
