<svg width="28" height="15" viewBox="0 0 28 15" fill="none" xmlns="http://www.w3.org/2000/svg">
<path d="M19.94 0.295798C19.8463 0.388761 19.7719 0.499362 19.7211 0.621222C19.6703 0.743081 19.6442 0.873786 19.6442 1.0058C19.6442 1.13781 19.6703 1.26852 19.7211 1.39038C19.7719 1.51223 19.8463 1.62284 19.94 1.7158L24.54 6.3158H1C0.734784 6.3158 0.48043 6.42115 0.292893 6.60869C0.105357 6.79623 0 7.05058 0 7.3158C0 7.58102 0.105357 7.83537 0.292893 8.0229C0.48043 8.21044 0.734784 8.3158 1 8.3158H24.52L19.94 12.8858C19.7537 13.0732 19.6492 13.3266 19.6492 13.5908C19.6492 13.855 19.7537 14.1084 19.94 14.2958C20.1274 14.482 20.3808 14.5866 20.645 14.5866C20.9092 14.5866 21.1626 14.482 21.35 14.2958L27.71 7.9358C27.7956 7.85367 27.8637 7.75508 27.9102 7.64596C27.9568 7.53683 27.9808 7.41943 27.9808 7.3008C27.9808 7.18217 27.9568 7.06476 27.9102 6.95564C27.8637 6.84652 27.7956 6.74793 27.71 6.6658L21.36 0.295798C21.267 0.20207 21.1564 0.127676 21.0346 0.0769072C20.9127 0.0261385 20.782 0 20.65 0C20.518 0 20.3873 0.0261385 20.2654 0.0769072C20.1436 0.127676 20.033 0.20207 19.94 0.295798Z" fill="#304256"/>
</svg>
