<svg width="20" height="17" viewBox="0 0 20 17" fill="none" xmlns="http://www.w3.org/2000/svg">
<path d="M19.0248 1.26745C18.9584 1.14091 18.8572 1.0359 18.7332 0.964779C18.6092 0.893653 18.4675 0.859365 18.3247 0.865947L0.765989 1.62262C0.61389 1.63127 0.468057 1.68594 0.347859 1.77938C0.227662 1.87282 0.138788 2.0006 0.0930426 2.14574C0.0472972 2.29089 0.0468454 2.44653 0.0917464 2.592C0.136647 2.73747 0.224776 2.86589 0.344428 2.96019L5.72288 7.35241L11.697 4.23423L12.3889 5.56101L6.39104 8.67958L6.91811 15.6002C6.92923 15.7501 6.98513 15.8931 7.07856 16.0109C7.17198 16.1287 7.29863 16.2157 7.4421 16.2608C7.58776 16.3034 7.7429 16.301 7.88708 16.2538C8.03126 16.2066 8.1577 16.1168 8.24974 15.9963L18.9384 2.06589C19.0271 1.95472 19.0823 1.82064 19.0976 1.67927C19.1129 1.5379 19.0876 1.39508 19.0248 1.26745Z" fill="#DA3654"/>
</svg>
