<svg width="15" height="15" viewBox="0 0 15 15" fill="none" xmlns="http://www.w3.org/2000/svg">
<path d="M5.83333 0V1.66667H1.66667V13.3333H13.3333V9.16667H15V14.1667C15 14.3877 14.9122 14.5996 14.7559 14.7559C14.5996 14.9122 14.3877 15 14.1667 15H0.833333C0.61232 15 0.400358 14.9122 0.244078 14.7559C0.0877973 14.5996 0 14.3877 0 14.1667V0.833333C0 0.61232 0.0877973 0.400358 0.244078 0.244078C0.400358 0.0877973 0.61232 0 0.833333 0H5.83333ZM12.155 1.66667H8.33333V0H15V6.66667H13.3333V2.845L7.5 8.67833L6.32167 7.5L12.155 1.66667Z" fill="#E01E5A"/>
</svg>
