<svg width="38" height="31" viewBox="0 0 38 31" fill="none" xmlns="http://www.w3.org/2000/svg"><path d="M37.8433 3.58841C36.4517 4.18952 34.9567 4.59568 33.385 4.77926 35.0067 3.83339 36.2199 2.3447 36.7983.590965 35.2747 1.47312 33.6072 2.09407 31.8683 2.4268 30.699 1.20973 29.1501.403038 27.4622.131965 25.7743-.139108 24.0418.140604 22.5337.927674 21.0256 1.71474 19.8263 2.96514 19.1219 4.48472 18.4175 6.00431 18.2476 7.70806 18.6383 9.33148 15.5511 9.18038 12.531 8.39821 9.77404 7.03572 7.01703 5.67323 4.58473 3.76088 2.635 1.42278 1.96833 2.54377 1.585 3.84348 1.585 5.22766 1.58426 6.47374 1.89905 7.70074 2.50146 8.79979 3.10387 9.89883 3.97527 10.8359 5.03833 11.528 3.80546 11.4897 2.59979 11.165 1.52167 10.5808V10.6783C1.52154 12.426 2.14172 14.1199 3.27697 15.4726 4.41222 16.8253 5.99262 17.7534 7.75 18.0996 6.6063 18.4013 5.40723 18.4458 4.24333 18.2296 4.73916 19.7334 5.70499 21.0484 7.00561 21.9905 8.30623 22.9326 9.87653 23.4547 11.4967 23.4836 8.74639 25.5882 5.34981 26.7298 1.85333 26.7248 1.23397 26.7249.615127 26.6897.0 26.6192 3.54913 28.8436 7.68057 30.0241 11.9 30.0195 26.1833 30.0195 33.9917 18.4879 33.9917 8.48667 33.9917 8.16174 33.9833 7.83357 33.9683 7.50864 35.4871 6.43797 36.7982 5.11214 37.84 3.59328L37.8433 3.58841z" fill="#000"/></svg>