<svg width="31" height="24" viewBox="0 0 31 24" fill="none" xmlns="http://www.w3.org/2000/svg">
<path id="credit-card 1 (Traced)" fill-rule="evenodd" clip-rule="evenodd" d="M6.06899 0.0910084C5.44471 0.258769 4.92698 0.687288 4.62248 1.28818C4.4372 1.65372 4.43749 1.65218 4.17798 4.08063L3.96612 6.06368L2.87099 6.09837C1.66293 6.13667 1.46249 6.18237 0.947132 6.53695C0.58882 6.78356 0.368967 7.05243 0.158526 7.50137L0 7.83956V15.0645V22.2895L0.223642 22.742C0.483689 23.2682 0.768775 23.5442 1.3319 23.815L1.71668 24H12.9047C21.775 24 24.1439 23.9844 24.3399 23.9249C24.9348 23.7442 25.5468 23.1642 25.7911 22.5497C25.9071 22.2577 25.9229 22.0889 25.9445 20.9147L25.9685 19.6052L26.6881 19.6124C27.3138 19.6186 27.452 19.6016 27.7478 19.4821C28.3743 19.2292 28.9333 18.5842 29.091 17.9324C29.1969 17.4948 30.2911 4.1516 30.2512 3.78465C30.1756 3.0901 29.6712 2.36046 29.0484 2.04488C28.8869 1.96307 28.5849 1.86682 28.3772 1.83095C28.0068 1.76696 6.84783 -0.00761168 6.5467 2.45738e-05C6.46222 0.00215562 6.24728 0.043119 6.06899 0.0910084ZM17.3148 2.06821C23.224 2.5574 28.1652 2.98698 28.2953 3.02274C28.6053 3.10798 29.0125 3.51288 29.0639 3.78719C29.0852 3.90049 28.8462 7.06705 28.5328 10.8241C27.9295 18.056 27.949 17.8967 27.6338 18.1818C27.3772 18.4138 27.0864 18.4796 26.5089 18.4363L25.961 18.3952L25.9444 13.147L25.9277 7.89875L25.7851 7.54358C25.5881 7.05279 24.9978 6.46248 24.507 6.26548L24.1519 6.12288L14.6657 6.10701L5.17963 6.09115V5.95737C5.17963 5.70442 5.58861 2.03245 5.62963 1.91708C5.74566 1.59085 6.22532 1.19027 6.51153 1.18062C6.54409 1.17956 11.4055 1.57895 17.3148 2.06821ZM23.9729 7.3432C24.2747 7.42702 24.6236 7.77592 24.7074 8.0777C24.7434 8.20716 24.7729 8.59951 24.7731 8.94948L24.7734 9.58583H12.9639H1.15432L1.15467 8.91988C1.15503 8.11582 1.21008 7.8939 1.4719 7.64013C1.86579 7.25831 1.09275 7.28258 12.9343 7.2801C20.6411 7.2785 23.805 7.29661 23.9729 7.3432ZM24.7598 12.0277L24.7759 13.256H12.9651H1.15432V12.0127V10.7695L12.9491 10.7844L24.7438 10.7993L24.7598 12.0277ZM24.7731 18.1248C24.7729 20.5135 24.7509 21.8884 24.7107 22.0333C24.6765 22.1563 24.5688 22.3477 24.4715 22.4587C24.1021 22.8794 25.0047 22.8504 12.8412 22.8323L1.88556 22.8161L1.67737 22.6734C1.56289 22.595 1.40501 22.4371 1.32658 22.3226L1.18392 22.1145L1.16787 18.2772L1.15177 14.4399H12.9626H24.7734L24.7731 18.1248ZM16.1715 16.3818L16.0125 16.5478V18.6358V20.7238L16.1855 20.8968L16.3585 21.0698H19.4156C21.399 21.0698 22.5126 21.0484 22.5864 21.0088C22.8625 20.8611 22.8792 20.7263 22.8792 18.6428C22.8792 16.5593 22.8625 16.4244 22.5864 16.2767C22.5126 16.2371 21.3946 16.2158 19.4016 16.2158H16.3306L16.1715 16.3818ZM21.6952 18.6428V19.8859H19.4458H17.1964V18.6428V17.3997H19.4458H21.6952V18.6428Z" fill="white"/>
</svg>
