<svg width="25" height="24" viewBox="0 0 25 24" fill="none" xmlns="http://www.w3.org/2000/svg">
<path id="edit 1 (Traced)" fill-rule="evenodd" clip-rule="evenodd" d="M3.4807 0.0747561C1.67536 0.441832 0.331932 1.83922 0.0505228 3.64268C0.00412201 3.94013 -0.00784023 6.17928 0.00460484 12.252C0.0229506 21.2038 -0.000545007 20.5134 0.31482 21.3563C0.67047 22.3069 1.71328 23.3496 2.66495 23.7061C3.50366 24.0203 2.84852 23.9997 12.0099 23.9997C21.1712 23.9997 20.5161 24.0203 21.3548 23.7061C22.3067 23.3495 23.3488 22.3075 23.7053 21.3555C24.0133 20.5335 23.999 20.8135 23.999 15.622C23.999 10.8742 23.9982 10.8372 23.8884 10.6902C23.6783 10.4087 23.5068 10.3209 23.1675 10.3209C22.8283 10.3209 22.6569 10.4087 22.4467 10.6901C22.3374 10.8364 22.3357 10.8957 22.3092 15.5683C22.2826 20.2561 22.2814 20.3009 22.167 20.5797C21.8091 21.4519 21.1941 22.0078 20.3409 22.2299C20.0752 22.2991 18.9492 22.31 12.0099 22.31C4.97797 22.31 3.94701 22.2998 3.6707 22.2279C2.74547 21.9868 2.03283 21.2719 1.79053 20.3417C1.66994 19.8787 1.66994 4.14253 1.79053 3.67954C2.01271 2.82641 2.56856 2.21134 3.44073 1.85349C3.71957 1.73907 3.76436 1.73784 8.45213 1.71123C13.1247 1.68473 13.184 1.68307 13.3303 1.5738C13.6118 1.36363 13.6996 1.19218 13.6996 0.852949C13.6996 0.513713 13.6118 0.342272 13.3303 0.1321C13.1836 0.0225083 13.1383 0.0213817 8.50577 0.0126916C4.81313 0.00571804 3.75605 0.0188069 3.4807 0.0747561ZM18.5274 0.071913C18.4389 0.112145 15.5981 2.91733 12.2145 6.30577C6.90572 11.6221 6.05796 12.4923 6.02963 12.6543C6.01155 12.7576 6.00399 13.8843 6.01273 15.1582C6.02824 17.4009 6.03221 17.4791 6.13933 17.6225C6.20016 17.7039 6.31657 17.8203 6.398 17.8811C6.54144 17.9883 6.61965 17.9923 8.88905 18.0082C10.3909 18.0187 11.2995 18.0047 11.4198 17.9693C11.5668 17.9259 12.9486 16.5718 17.7864 11.7303C23.2923 6.22021 23.9692 5.52479 24.0015 5.34552C24.0903 4.85265 24.154 4.9322 21.6752 2.44324C20.3797 1.1424 19.3108 0.11193 19.2131 0.0695528C18.9975 -0.0239999 18.7368 -0.0231417 18.5274 0.071913ZM20.4318 3.6156L21.96 5.14446L21.2762 5.82814L20.5925 6.51187L19.0508 4.97018L17.5091 3.42849L18.1784 2.75758C18.5465 2.38863 18.8603 2.08673 18.8757 2.08673C18.891 2.08673 19.5913 2.77469 20.4318 3.6156ZM17.857 6.19049L19.3852 7.71941L15.0942 12.0107L10.8032 16.302H9.26079H7.71846V14.7599V13.2178L11.9964 8.93968C14.3492 6.58675 16.2865 4.66157 16.3015 4.66157C16.3165 4.66157 17.0165 5.34959 17.857 6.19049Z" fill="white"/>
</svg>
