<svg width="21" height="24" viewBox="0 0 21 24" fill="none" xmlns="http://www.w3.org/2000/svg">
<path id="user 1 (Traced)" fill-rule="evenodd" clip-rule="evenodd" d="M8.98838 0.0600255C7.70658 0.261526 6.56136 0.868797 5.66374 1.82298C4.67905 2.86972 4.16875 4.07844 4.09858 5.5303C4.00057 7.55807 4.99568 9.49652 6.71137 10.62C7.55525 11.1726 8.36919 11.4532 9.35505 11.5313C11.1824 11.6761 12.7405 11.1018 13.9984 9.81977C15.2271 8.56754 15.7766 7.02252 15.6244 5.24867C15.4939 3.72829 14.8212 2.41631 13.6586 1.41491C12.7402 0.623739 11.8927 0.232988 10.725 0.0621377C10.1641 -0.0199551 9.50234 -0.020753 8.98838 0.0600255ZM10.9899 1.53638C11.723 1.72577 12.2783 2.0472 12.8995 2.64161C13.7034 3.41086 14.1152 4.25314 14.2213 5.34551C14.3472 6.64186 13.9497 7.82411 13.0719 8.76341C12.5292 9.34411 11.7271 9.83723 11.0423 10.0111C10.0371 10.2664 8.83255 10.156 7.9698 9.72965C6.79069 9.14698 5.92029 8.06133 5.60009 6.77413C5.47782 6.2826 5.49124 5.16663 5.62544 4.66196C5.98713 3.30215 7.17257 2.03898 8.48812 1.61167C9.19917 1.38074 10.2635 1.34868 10.9899 1.53638ZM4.72547 11.6364C4.00827 11.7122 3.26573 11.9822 2.67911 12.3806C1.21439 13.3752 0.266876 15.5995 0.0488064 18.5553C-0.0736992 20.2158 0.0251031 21.0365 0.451432 21.8996C0.686915 22.3762 1.13277 22.9008 1.58862 23.2376C1.93211 23.4913 2.51694 23.7564 3.02738 23.8897L3.44981 24H10.021H16.5922L17.0146 23.89C18.4976 23.5038 19.5328 22.5011 19.9056 21.0899C20.0983 20.3604 20.0736 18.6245 19.851 17.2529C19.3562 14.2036 18.108 12.373 16.1334 11.8007C15.6819 11.6699 14.8742 11.5704 14.6348 11.6162C14.4057 11.6599 14.0855 11.831 13.3627 12.2957C12.5841 12.7964 12.4596 12.8616 11.8795 13.0724C11.1921 13.3222 10.6823 13.4188 10.051 13.4189C9.38992 13.4189 8.88441 13.3284 8.21767 13.0905C7.58806 12.8659 7.56079 12.8516 6.57751 12.2271C6.05899 11.8978 5.67538 11.6868 5.52293 11.6473C5.26238 11.5797 5.26243 11.5797 4.72547 11.6364ZM5.94597 13.4923C6.83125 14.0591 7.20092 14.2418 7.9744 14.495C9.99109 15.1552 12.052 14.8366 13.995 13.5644C14.8742 12.9886 14.8539 12.9972 15.2285 13.0445C16.9323 13.2599 17.9939 14.6918 18.4442 17.3819C18.6296 18.4891 18.6864 20.0344 18.5633 20.6205C18.365 21.5652 17.7266 22.2301 16.7527 22.5064C16.4678 22.5872 16.0997 22.5919 10.021 22.5919C3.92655 22.5919 3.57467 22.5874 3.28553 22.5058C2.58509 22.3082 1.98003 21.8312 1.69756 21.2542C1.4534 20.7553 1.39524 20.3382 1.42927 19.3298C1.46363 18.3118 1.51338 17.8384 1.67367 17.0064C1.79862 16.3578 2.08456 15.4379 2.28479 15.0406C2.88981 13.8401 3.71106 13.1833 4.77968 13.0455C4.9518 13.0233 5.10927 13.0025 5.12964 12.9992C5.14997 12.996 5.51734 13.2178 5.94597 13.4923Z" fill="white"/>
</svg>
